<svg xmlns="http://www.w3.org/2000/svg" width="1200" height="218" viewBox="0 0 1200 218" role="img" aria-label="LOS ANGELES — RESTAURANT STUDY. Korean restaurants + KBBQ. Public data, reproducible estimates.">
<title>LOS ANGELES — RESTAURANT STUDY. Korean restaurants + KBBQ. Public data, reproducible estimates.</title>
<defs>
 <pattern id="scan" width="4" height="4" patternUnits="userSpaceOnUse"><path d="M0 0H4" stroke="#c8ffdb" opacity=".025"/></pattern>
 <filter id="glow"><feGaussianBlur stdDeviation="1.3"/></filter>
</defs>
<style>text{font-family:ui-monospace,SFMono-Regular,Consolas,monospace}.blink{animation:blink 2.2s steps(1) infinite}.sweep{animation:sweep 12s linear infinite}@keyframes blink{0%,65%{opacity:1}66%,100%{opacity:.2}}@keyframes sweep{from{transform:translateX(0)}to{transform:translateX(262px)}}@media(prefers-reduced-motion:reduce){.blink,.sweep{animation:none}}</style>
<rect width="1200" height="218" fill="#030908"/>
<rect x="2" y="2" width="1196" height="214" fill="none" stroke="#56867a"/>
<rect x="7" y="7" width="1186" height="204" fill="none" stroke="#1d3930"/>
<text x="28" y="37" font-size="16" fill="#6d9a91" >02 / PUBLIC PROJECT</text><rect x="28" y="56" width="265" height="130" fill="#071210" stroke="#497766"/><path d="M61 56V186" stroke="#29453b" stroke-width=".7"/><path d="M94 56V186" stroke="#29453b" stroke-width=".7"/><path d="M127 56V186" stroke="#29453b" stroke-width=".7"/><path d="M160 56V186" stroke="#29453b" stroke-width=".7"/><path d="M193 56V186" stroke="#29453b" stroke-width=".7"/><path d="M226 56V186" stroke="#29453b" stroke-width=".7"/><path d="M259 56V186" stroke="#29453b" stroke-width=".7"/><path d="M28 88H293" stroke="#29453b" stroke-width=".7"/><path d="M28 120H293" stroke="#29453b" stroke-width=".7"/><path d="M28 152H293" stroke="#29453b" stroke-width=".7"/><path d="M42 175L67 146L80 121L102 104L110 75L136 65" fill="none" stroke="#78d9dc" opacity="0.9"/><path d="M55 175L80 146L93 121L115 104L123 75L149 65" fill="none" stroke="#78d9dc" opacity="0.7"/><path d="M68 175L93 146L106 121L128 104L136 75L162 65" fill="none" stroke="#78d9dc" opacity="0.5"/><path d="M81 175L106 146L119 121L141 104L149 75L175 65" fill="none" stroke="#78d9dc" opacity="0.30000000000000004"/><circle cx="135" cy="100" r="4" fill="#e1ed88"/><circle cx="179" cy="142" r="4" fill="#e1ed88"/><circle cx="227" cy="91" r="4" fill="#e1ed88"/><circle cx="94" cy="155" r="4" fill="#e1ed88"/><circle cx="240" cy="160" r="4" fill="#e1ed88"/><text x="221" y="176" font-size="15" fill="#91bfff" >LA</text><path class="sweep" d="M29 59v124" stroke="#b7f6cf" opacity=".33"/><text x="330" y="84" font-size="32" fill="#b7f6cf" >LOS ANGELES</text><text x="330" y="121" font-size="32" fill="#b7f6cf" >RESTAURANT STUDY</text><text x="330" y="158" font-size="20" fill="#6d9a91" >Korean restaurants + KBBQ. Public data, reproducible estimates.</text><text x="330" y="194" font-size="15" fill="#91bfff" >PERMITS / OPEN MAPS / PYTHON</text><text x="1130" y="119" font-size="34" fill="#b7f6cf" >↗</text>
<rect width="1200" height="218" fill="url(#scan)" pointer-events="none"/>
</svg>